<svg width="299.9211959838867" height="84.41099395751955" xmlns="http://www.w3.org/2000/svg">
 <g>
  <title>background</title>
  <rect x="-1" y="-1" width="301.921196" height="86.410994" id="canvas_background" fill="none"/>
 </g>

 <g>
  <title>Layer 1</title>
  <path d="m85.41697,15.78348l0,22.68845l19.24819,0l0,-4.53577l-14.71242,0l0,-18.15268l-4.53577,0zm25.73472,11.37786l0,-2.26788l4.50694,-4.57421l6.80365,0l0,6.84209l-11.31059,0zm0,11.31059l0,-6.77482l11.31059,0l0,6.77482l4.50694,0l0,-22.68845l-13.57848,0l-6.77482,6.84209l0,15.84636l4.53577,0zm38.76544,-22.68845l-20.3533,0l0,4.53577l13.57848,0l-13.57848,13.61691l0,4.53577l20.3533,0l0,-4.53577l-13.57848,0l13.57848,-13.61691l0,-4.53577zm21.8428,22.68845l0,-4.53577l-14.71242,0l0,-4.50694l13.57848,0l0,-4.53576l-13.57848,0l0,-4.57421l14.71242,0l0,-4.53577l-19.24819,0l0,22.68845l19.24819,0zm7.45711,-11.31059l0,-6.84209l11.31059,0l0,6.84209l-11.31059,0zm15.81753,11.31059l0,-4.53577l-2.23906,-2.23905l2.23906,-2.26789l0,-11.34903l-2.23906,-2.29671l-18.11424,0l0,22.68845l4.53577,0l0,-6.77482l6.77482,0l2.26788,2.23905l2.26789,2.29671l0,2.23906l4.50694,0zm34.32577,0l2.23905,-2.23906l0,-9.10997l-2.23905,-2.26788l-13.57848,0l0,-4.53577l11.31059,0l0,2.26788l4.50694,0l0,-4.50694l-2.23905,-2.29671l-15.8848,0l-2.23906,2.29671l0,9.725l2.23906,1.62403l13.61691,0l0,4.50694l-11.31059,0l0,-2.23905l-4.54538,0l0,4.53576l2.23906,2.23906l15.8848,0zm16.46137,-4.53577l-2.26788,0l-4.50694,-4.50694l0,-13.64574l-4.53577,0l0,15.91363l6.77483,6.77482l6.80365,0l6.77482,-6.77482l0,-15.91363l-4.49733,0l0,13.64574l-4.54538,4.50694zm16.49982,4.53577l0,-22.68845l-4.53577,0l0,22.68845l4.53577,0zm14.75086,0l0,-18.15268l7.87993,0l0,-4.53577l-20.36291,0l0,4.53577l7.94721,0l0,18.15268l4.53577,0z" fill="#ffffff" id="svg_1" stroke="null"/>
  <path d="m71.58538,63.8566c1.06792,0 1.91336,-0.42272 2.54744,-1.45727c1.23478,-1.99123 2.0691,-6.70788 2.28045,-9.46668l2.7588,0l0,10.81271l1.63526,0l0,-12.16986l-5.7957,0c-0.23361,2.95903 -1.0123,7.9093 -2.13584,9.82265c-0.38935,0.64521 -0.90106,0.91219 -1.44615,0.91219c-0.06674,0 -0.20023,0 -0.3671,-0.0445l0,1.53514c0.16687,0.03337 0.42272,0.05562 0.52284,0.05562zm17.22023,-0.11124l1.40165,0c-0.11124,-0.44497 -0.16686,-1.23479 -0.16686,-2.73655l0,-3.17039c0,-2.10247 -1.25704,-3.04803 -3.22602,-3.04803c-1.03455,0 -2.14696,0.25586 -3.15926,0.86769l0.56733,1.12354c0.63408,-0.3671 1.39052,-0.67858 2.38057,-0.67858c1.0568,0 1.81325,0.53396 1.81325,1.76875l0,0.46721l-1.62414,0.05563c-0.88993,0.03337 -1.59075,0.14461 -2.19146,0.44496c-0.88993,0.42272 -1.47952,1.19029 -1.47952,2.35833c0,1.67975 1.20142,2.73655 2.8033,2.73655c1.09017,0 1.93561,-0.50059 2.60306,-1.13467l0.2781,0.94556zm-0.38934,-4.24944l0,2.1136c-0.38935,0.37822 -1.1013,0.99005 -2.12472,0.99005c-0.92331,0 -1.51289,-0.58958 -1.51289,-1.49064c0,-0.53396 0.22248,-0.97893 0.6897,-1.23479c0.3671,-0.18911 0.82319,-0.30035 1.52401,-0.3226l1.4239,-0.05562zm6.29628,4.43855c2.4362,0 3.50412,-1.36828 3.50412,-2.65868c0,-1.07905 -0.61183,-1.79099 -1.73537,-2.05797l0,-0.05563c0.9678,-0.28922 1.53514,-1.02342 1.53514,-1.96898c0,-1.39052 -1.23479,-2.40282 -3.19264,-2.40282c-0.95668,0 -1.93561,0.25586 -2.69206,0.6452l0.45609,1.17917c0.53397,-0.26698 1.34603,-0.53396 2.10247,-0.53396c1.0568,0 1.702,0.44496 1.702,1.25703c0,0.6452 -0.44496,1.3349 -2.03572,1.3349c-0.14461,0 -0.6452,0 -0.99005,-0.02225l0,1.23479c0.28923,-0.03338 0.72307,-0.03338 0.86768,-0.03338c1.51289,0 2.34721,0.38935 2.34721,1.36828c0,0.92331 -0.71195,1.41277 -1.95786,1.41277c-0.91218,0 -1.64638,-0.20024 -2.4362,-0.58958l0,1.31265c0.64521,0.31148 1.51289,0.57846 2.52519,0.57846zm12.38122,-4.19382l0,-0.41159c0,-2.78105 -1.30153,-4.53867 -3.59311,-4.53867c-2.23596,0 -3.69323,1.86886 -3.69323,4.52754c0,2.49182 1.32378,4.61654 4.22719,4.61654c1.00117,0 2.04685,-0.27811 2.85891,-0.80094l-0.50059,-1.12354c-0.6007,0.33372 -1.32377,0.58958 -2.16921,0.58958c-1.72425,0 -2.73655,-1.21254 -2.7588,-2.85892l5.62884,0zm-5.62884,-1.22366c0.02225,-1.32378 0.7787,-2.43619 2.03573,-2.43619c1.31265,0 1.90223,1.22366 1.91336,2.43619l-3.94909,0zm7.58669,9.60017l1.62414,0l0,-4.4608c0.43384,0.16687 0.94555,0.27811 1.47951,0.27811c2.58081,0 4.44967,-1.81324 4.44967,-4.60541c0,-2.83667 -1.64637,-4.53867 -4.53866,-4.53867c-1.03455,0 -2.0691,0.20024 -3.01465,0.53396l0,12.79281l-0.00001,0zm1.62414,-5.88469l0,-5.87357c0.44496,-0.12237 0.85656,-0.20023 1.3349,-0.20023c1.69087,0 2.91453,1.00117 2.91453,3.15926c0,1.95786 -0.97892,3.22602 -2.84779,3.22602c-0.53396,0 -0.93443,-0.089 -1.40164,-0.31148zm7.88704,1.51289l1.62413,0l0,-3.94909l3.97133,0l0,3.94909l1.62414,0l0,-8.73249l-1.62414,0l0,3.35951l-3.97133,0l0,-3.35951l-1.62413,0l0,8.73249zm14.83966,0l1.40165,0c-0.11125,-0.44497 -0.16687,-1.23479 -0.16687,-2.73655l0,-3.17039c0,-2.10247 -1.25703,-3.04803 -3.22601,-3.04803c-1.03455,0 -2.14697,0.25586 -3.15927,0.86769l0.57846,1.12354c0.62295,-0.3671 1.3794,-0.67858 2.38057,-0.67858c1.04568,0 1.80212,0.53396 1.80212,1.76875l0,0.46722l-1.62413,0.05562c-0.87881,0.03337 -1.57963,0.14461 -2.19146,0.44496c-0.88994,0.42272 -1.47952,1.19029 -1.47952,2.35833c0,1.67975 1.20141,2.73655 2.80329,2.73655c1.09017,0 1.93561,-0.50059 2.60306,-1.13467l0.27811,0.94556zm-0.38935,-4.24944l0,2.1136c-0.38934,0.37822 -1.10129,0.99005 -2.12472,0.99005c-0.9233,0 -1.51289,-0.58958 -1.51289,-1.49064c0,-0.53396 0.22249,-0.97893 0.6897,-1.23479c0.3671,-0.18911 0.82319,-0.30035 1.52402,-0.3226l1.42389,-0.05562zm3.41513,4.24944l1.73537,0l1.03455,-2.40283c0.30035,-0.70082 0.6452,-0.9233 0.88993,-0.9233l1.73537,0l0,3.32613l1.62414,0l0,-8.73249l-3.24827,0c-2.21371,0 -3.12589,1.25704 -3.12589,2.65868c0,1.0123 0.52284,1.90224 1.51289,2.26934l0,0.03337c-0.37822,0.16686 -0.6452,0.52284 -0.92331,1.13467l-1.23478,2.63643zm2.26933,-5.96256c0,-0.86769 0.50059,-1.47952 1.64638,-1.47952l1.47951,0l0,2.85892l-1.59075,0c-1.00118,0 -1.53514,-0.54509 -1.53514,-1.3794zm11.27992,10.33436l1.62413,0l0,-4.4608c0.42272,0.16687 0.94556,0.27811 1.47952,0.27811c2.58081,0 4.44967,-1.81324 4.44967,-4.60541c0,-2.83667 -1.64638,-4.53867 -4.53867,-4.53867c-1.03455,0 -2.06909,0.20024 -3.01465,0.53396l0,12.79281zm1.62413,-5.88469l0,-5.87357c0.44497,-0.12236 0.85656,-0.20023 1.3349,-0.20023c1.69088,0 2.91454,1.00117 2.91454,3.15926c0,1.95786 -0.97893,3.22602 -2.84779,3.22602c-0.53396,0 -0.93443,-0.089 -1.40165,-0.31148zm14.73954,-2.49182l0,-0.41159c0,-2.78105 -1.31265,-4.53867 -3.60423,-4.53867c-2.23596,0 -3.69323,1.86886 -3.69323,4.52754c0,2.49182 1.3349,4.61654 4.22719,4.61654c1.00117,0 2.04685,-0.27811 2.85891,-0.80094l-0.50059,-1.12354c-0.6007,0.33372 -1.32377,0.58958 -2.16921,0.58958c-1.72425,0 -2.73655,-1.21254 -2.7588,-2.85892l5.63996,0zm-5.63996,-1.22366c0.02225,-1.32378 0.77869,-2.43619 2.03573,-2.43619c1.31265,0 1.90223,1.22366 1.92448,2.43619l-3.96021,0zm9.92277,5.41748c2.4362,0 3.50412,-1.36828 3.50412,-2.65868c0,-1.07905 -0.61183,-1.79099 -1.73537,-2.05797l0,-0.05563c0.95668,-0.28922 1.53513,-1.02342 1.53513,-1.96898c0,-1.39052 -1.2459,-2.40282 -3.20376,-2.40282c-0.95668,0 -1.93561,0.25586 -2.69205,0.6452l0.46721,1.17917c0.53396,-0.26698 1.34603,-0.53396 2.10247,-0.53396c1.04568,0 1.702,0.44496 1.702,1.25703c0,0.6452 -0.44496,1.3349 -2.03572,1.3349c-0.14462,0 -0.6452,0 -1.00118,-0.02225l0,1.23479c0.30036,-0.03338 0.72307,-0.03338 0.86769,-0.03338c1.51289,0 2.3472,0.38935 2.3472,1.36828c0,0.92331 -0.70082,1.41277 -1.95786,1.41277c-0.90105,0 -1.63525,-0.20024 -2.43619,-0.58958l0,1.31265c0.6452,0.31148 1.51289,0.57846 2.53631,0.57846zm5.52872,-0.18911l1.62413,0l0,-3.80447l1.50177,0c0.25585,0 0.53396,0.24473 0.84543,0.90106l1.31266,2.90341l1.71312,0l-1.57963,-3.28164c-0.3226,-0.63407 -0.57846,-1.02342 -1.0568,-1.14579l0,-0.04449c0.86769,-0.48947 0.92331,-2.02461 1.40165,-2.72543c0.14461,-0.20023 0.35597,-0.33372 0.62295,-0.33372c0.15574,0 0.30035,0.03337 0.44497,0.08899l0,-1.4239c-0.20024,-0.06674 -0.48947,-0.08899 -0.71195,-0.08899c-0.70082,0 -1.19029,0.30035 -1.51289,0.83432c-0.66745,1.06792 -0.65633,3.04802 -1.84661,3.04802l-1.13467,0l0,-3.65985l-1.62413,0l0,8.73248zm13.82736,0l1.40164,0c-0.11124,-0.44497 -0.16686,-1.23479 -0.16686,-2.73655l0,-3.17039c0,-2.10247 -1.24591,-3.04803 -3.22601,-3.04803c-1.03455,0 -2.13584,0.25586 -3.15927,0.86769l0.57846,1.12354c0.62295,-0.3671 1.3794,-0.67858 2.38057,-0.67858c1.04568,0 1.80212,0.53396 1.80212,1.76875l0,0.46722l-1.62413,0.05562c-0.87881,0.03337 -1.57964,0.14461 -2.19147,0.44496c-0.88993,0.42272 -1.47951,1.19029 -1.47951,2.35833c0,1.67975 1.20141,2.73655 2.80329,2.73655c1.09017,0 1.94673,-0.50059 2.60306,-1.13467l0.27811,0.94556zm-0.38935,-4.24944l0,2.1136c-0.37822,0.37822 -1.10129,0.99005 -2.11359,0.99005c-0.92331,0 -1.52402,-0.58958 -1.52402,-1.49064c0,-0.53396 0.22249,-0.97893 0.6897,-1.23479c0.3671,-0.18911 0.83432,-0.30035 1.53514,-0.3226l1.41277,-0.05562zm8.10953,4.24944l1.54626,0l3.23714,-4.61654c0.53396,-0.77869 0.87881,-1.32378 1.17916,-1.82436l0.03337,0c-0.03337,0.56733 -0.05562,1.12354 -0.05562,1.80211l0,4.63879l1.61301,0l0,-8.73248l-1.55739,0l-3.21488,4.61653c-0.51172,0.75644 -0.87881,1.32378 -1.19029,1.82437l-0.0445,0c0.02225,-0.56734 0.05562,-1.12355 0.05562,-1.80212l0,-4.63879l-1.60188,0l0,8.73249zm14.10546,0l1.62413,0l0,-7.28634l3.75998,0l0.50058,-1.44614l-5.88469,0l0,8.73248zm7.34196,4.3718l1.62413,0l0,-4.4608c0.42272,0.16687 0.94556,0.27811 1.47952,0.27811c2.58081,0 4.44967,-1.81324 4.44967,-4.60541c0,-2.83667 -1.64638,-4.53867 -4.53866,-4.53867c-1.03455,0 -2.0691,0.20024 -3.01466,0.53396l0,12.79281zm1.62413,-5.88469l0,-5.87357c0.44497,-0.12237 0.84544,-0.20023 1.3349,-0.20023c1.69088,0 2.91454,1.00117 2.91454,3.15926c0,1.95786 -0.97893,3.22602 -2.84779,3.22602c-0.53396,0 -0.93443,-0.089 -1.40165,-0.31148zm13.07092,1.51289l1.40164,0c-0.11124,-0.44497 -0.16686,-1.23479 -0.16686,-2.73655l0,-3.17039c0,-2.10247 -1.25703,-3.04803 -3.22601,-3.04803c-1.03455,0 -2.14697,0.25586 -3.15927,0.86769l0.56733,1.12354c0.63408,-0.3671 1.39052,-0.67858 2.3917,-0.67858c1.04567,0 1.80212,0.53396 1.80212,1.76875l0,0.46722l-1.62413,0.05562c-0.88994,0.03337 -1.59076,0.14461 -2.19147,0.44496c-0.88993,0.42272 -1.47951,1.19029 -1.47951,2.35833c0,1.67975 1.20141,2.73655 2.80329,2.73655c1.09017,0 1.93561,-0.50059 2.60306,-1.13467l0.2781,0.94556l0.00001,0zm-0.38935,-4.24944l0,2.1136c-0.38935,0.37822 -1.10129,0.99005 -2.12472,0.99005c-0.92331,0 -1.51289,-0.58958 -1.51289,-1.49064c0,-0.53396 0.22249,-0.97893 0.6897,-1.23479c0.3671,-0.18911 0.82319,-0.30035 1.52401,-0.3226l1.4239,-0.05562zm3.99358,4.24944l3.3595,0c2.54744,0 3.37063,-1.25704 3.37063,-2.46957c0,-1.11242 -0.76757,-1.77987 -1.67975,-2.00235l0,-0.03338c0.83431,-0.25585 1.45727,-0.84543 1.45727,-1.87998c0,-1.14579 -0.81207,-2.34721 -3.33726,-2.34721l-3.17039,0l0,8.73249zm1.56851,-1.22366l0,-2.63643l1.95786,0c1.0123,0 1.57963,0.47834 1.57963,1.3349c0,0.84544 -0.50059,1.30153 -1.71312,1.30153l-1.82437,0zm0,-3.78222l0,-2.50295l1.60188,0c1.27928,0 1.71313,0.48947 1.71313,1.24591c0,0.85656 -0.53396,1.25704 -1.56851,1.25704l-1.7465,0zm7.11948,5.00588l1.55738,0l3.22601,-4.61654c0.53397,-0.77869 0.88994,-1.32378 1.17917,-1.82436l0.04449,0c-0.04449,0.56733 -0.05562,1.12354 -0.05562,1.80211l0,4.63879l1.60189,0l0,-8.73248l-1.54627,0l-3.21488,4.61653c-0.52284,0.75644 -0.88994,1.32378 -1.20142,1.82437l-0.03337,0c0.01113,-0.56734 0.05562,-1.12355 0.05562,-1.80212l0,-4.63879l-1.613,0l0,8.73249zm9.96726,4.3718l1.62413,0l0,-4.4608c0.42272,0.16687 0.94556,0.27811 1.47952,0.27811c2.58081,0 4.44967,-1.81324 4.44967,-4.60541c0,-2.83667 -1.64638,-4.53867 -4.53866,-4.53867c-1.03455,0 -2.0691,0.20024 -3.01466,0.53396l0,12.79281zm1.62413,-5.88469l0,-5.87357c0.44497,-0.12237 0.85657,-0.20023 1.33491,-0.20023c1.69087,0 2.91453,1.00117 2.91453,3.15926c0,1.95786 -0.97893,3.22602 -2.84779,3.22602c-0.53396,0 -0.93443,-0.089 -1.40164,-0.31148l-0.00001,0zm11.55803,1.702c2.51406,0 4.14932,-2.00235 4.14932,-4.56092c0,-2.59193 -1.6575,-4.58316 -4.12707,-4.58316c-2.51407,0 -4.16045,1.99123 -4.16045,4.58316c0,2.55857 1.64638,4.56092 4.1382,4.56092zm0,-1.35715c-1.53514,0 -2.45844,-1.34603 -2.45844,-3.20377c0,-1.89111 0.9233,-3.23713 2.48069,-3.23713c1.53514,0 2.44732,1.34602 2.44732,3.23713c0,1.85774 -0.91219,3.20377 -2.46957,3.20377zm6.10718,1.16804l3.3595,0c2.54744,0 3.38175,-1.25704 3.38175,-2.46957c0,-1.11242 -0.77869,-1.77987 -1.67975,-2.00235l0,-0.03338c0.83431,-0.25585 1.45727,-0.84543 1.45727,-1.87998c0,-1.14579 -0.81207,-2.34721 -3.33726,-2.34721l-3.18151,0l0,8.73249zm1.56851,-1.22366l0,-2.63643l1.95785,0c1.02343,0 1.59076,0.47834 1.59076,1.3349c0,0.84544 -0.50059,1.30153 -1.71312,1.30153l-1.83549,0zm0,-3.78222l0,-2.50295l1.613,0c1.26816,0 1.71313,0.48947 1.71313,1.24591c0,0.85656 -0.53397,1.25704 -1.56851,1.25704l-1.75763,0l0.00001,0zm7.1306,5.00588l1.62413,0l0,-3.80447l1.49064,0c0.26698,0 0.54508,0.24473 0.85656,0.90106l1.31265,2.90341l1.71313,0l-1.59076,-3.28164c-0.31148,-0.63407 -0.56734,-1.02342 -1.04568,-1.14579l0,-0.04449c0.86769,-0.48947 0.92331,-2.02461 1.40165,-2.72543c0.14462,-0.20023 0.34485,-0.33372 0.62296,-0.33372c0.14461,0 0.30035,0.03337 0.44496,0.08899l0,-1.4239c-0.20023,-0.06674 -0.50059,-0.08899 -0.72307,-0.08899c-0.70082,0 -1.17916,0.30035 -1.51289,0.83432c-0.66745,1.06792 -0.6452,3.04802 -1.84661,3.04802l-1.12354,0l0,-3.65985l-1.62414,0l0,8.73248l0.00001,0zm13.82735,0l1.40165,0c-0.11124,-0.44497 -0.16686,-1.23479 -0.16686,-2.73655l0,-3.17039c0,-2.10247 -1.25704,-3.04803 -3.22602,-3.04803c-1.03454,0 -2.14696,0.25586 -3.15926,0.86769l0.56733,1.12354c0.63408,-0.3671 1.39052,-0.67858 2.38057,-0.67858c1.0568,0 1.81325,0.53396 1.81325,1.76875l0,0.46722l-1.62413,0.05562c-0.88994,0.03337 -1.59076,0.14461 -2.19147,0.44496c-0.88993,0.42272 -1.47951,1.19029 -1.47951,2.35833c0,1.67975 1.20141,2.73655 2.80329,2.73655c1.09017,0 1.93561,-0.50059 2.60306,-1.13467l0.2781,0.94556zm-0.38934,-4.24944l0,2.1136c-0.38935,0.37822 -1.11242,0.99005 -2.12472,0.99005c-0.92331,0 -1.51289,-0.58958 -1.51289,-1.49064c0,-0.53396 0.22248,-0.97893 0.6897,-1.23479c0.3671,-0.18911 0.82319,-0.30035 1.52401,-0.3226l1.4239,-0.05562z" fill="#ffffff" id="svg_2" stroke="null"/>
  <rect x="33.067" y="49.896" width="3" height="5.999" id="svg_4" transform="matrix(0.8999999761581421,0,0,0.8999999761581421,-6.359399795532227,-2.7945001125335693) " fill="#db2723"/>
  <rect x="7.066" y="93.895" width="85.868" height="3" id="svg_5" transform="matrix(0.8999999761581421,0,0,0.8999999761581421,-6.359399795532227,-2.7945001125335693) " fill="#db2723"/>
  <path d="m33.1155,78.9894c-3.7791,-7.2459 -11.2023,-11.7459 -19.3743,-11.7459c-0.6858,0 -1.3761,0.0315 -2.052,0.0963l0.2547,2.6874c0.5913,-0.0567 1.1961,-0.0846 1.7973,-0.0846c7.1613,0 13.6683,3.9447 16.9794,10.2942l2.3949,-1.2474z" fill="#db2723" id="svg_6"/>
  <path d="m7.8642,70.8687l-0.828,-2.5695c-1.2375,0.3987 -2.4489,0.9126 -3.5991,1.5273l1.2726,2.3814c1.0089,-0.54 2.0709,-0.99 3.1545,-1.3392z" fill="#db2723" id="svg_7"/>
  <path d="m9.2934,75.6369c-0.3978,0.2232 -0.7866,0.4626 -1.1637,0.7209l1.5201,2.2311c0.3123,-0.2124 0.6336,-0.4113 0.9621,-0.5958c5.2254,-2.9232 11.6685,-1.8531 15.6681,2.6001l2.0088,-1.8036c-4.8483,-5.3991 -12.6612,-6.696 -18.9954,-3.1527z" fill="#db2723" id="svg_8"/>
  <path d="m59.508,67.6026c-6.6555,1.2213 -12.2715,5.3577 -15.4107,11.3499l2.3922,1.2537c2.7513,-5.2524 7.6725,-8.8767 13.5054,-9.9477l-0.4869,-2.6559z" fill="#db2723" id="svg_9"/>
  <path d="m48.9609,79.0443l2.0475,1.7595c2.0511,-2.3868 4.8987,-3.9231 8.0208,-4.3263l-0.3465,-2.6775c-3.7827,0.4887 -7.2351,2.3508 -9.7218,5.2443z" fill="#db2723" id="svg_10"/>
  <path d="m60.6888,76.374c1.8828,0.0054 3.7719,0.4392 5.4684,1.2519l1.1673,-2.4345c-2.0547,-0.9846 -4.347,-1.5102 -6.6267,-1.5174l-0.009,2.7z" fill="#db2723" id="svg_11"/>
  <path d="m11.7,20.5119l6.2973,0l0,27.5274c0,3.6495 2.7648,6.7041 6.4314,7.4142l0,4.797c0,3.4065 2.9151,6.1767 6.4998,6.1767l1.5399,0l0,7.4817l4.8672,5.6799l2.6118,0l4.8672,-5.6799l0,-7.4817l1.5381,0c3.5838,0 6.5007,-2.7702 6.5007,-6.1767l0,-4.797c3.6648,-0.7101 6.4305,-3.7656 6.4305,-7.4142l0,-27.5274l6.4314,0l0,-6.3l3.5856,0l0,-14.2119l-2.7,0l0,11.5119l-55.8,0l0,-11.5119l-2.7,0l0,14.2119l3.6,0l0,6.3l-0.0009,0zm30.4137,52.3989l-3.4092,3.978l-0.1296,0l-3.4083,-3.978l0,-6.4827l6.9462,0l0,6.4827l0.0009,0zm4.2381,-9.1827l-15.4242,0c-2.0952,0 -3.7998,-1.5588 -3.7998,-3.4767l0,-4.6404l2.5704,0l0,5.4018l2.7,0l0,-5.4018l17.7534,0l0,4.6404c0.0009,1.9179 -1.7046,3.4767 -3.7998,3.4767zm4.8663,-10.8171l-25.1559,0c-2.9583,0 -5.3649,-2.1852 -5.3649,-4.8708l0,-27.5283l0.4833,0l0,-0.0009l2.2203,0l0,19.8009l2.7,0l0,-19.8009l30.4821,0l0,27.5283c0,2.6865 -2.4066,4.8717 -5.3649,4.8717zm11.7963,-35.0991l-48.6144,0l0,-3.6l48.6144,0l0,3.6z" fill="#db2723" id="svg_12"/>
 </g>
</svg>