<svg width="299.9211959838867" height="84.41099395751955" xmlns="http://www.w3.org/2000/svg">

 <g>
  <title>background</title>
  <rect fill="none" id="canvas_background" height="402" width="582" y="-1" x="-1"/>
 </g>
 <g>
  <title>Layer 1</title>
  <path stroke="null" id="svg_1" fill=" rgb(0, 0, 0)" d="m85.416972,15.78348l0,22.688449l19.248185,0l0,-4.535768l-14.712417,0l0,-18.152681l-4.535768,0zm25.734717,11.377859l0,-2.267884l4.506939,-4.574207l6.803652,0l0,6.842091l-11.310591,0zm0,11.310591l0,-6.774823l11.310591,0l0,6.774823l4.506939,0l0,-22.688449l-13.578475,0l-6.774823,6.842091l0,15.846359l4.535768,0zm38.76544,-22.688449l-20.353298,0l0,4.535768l13.578475,0l-13.578475,13.616913l0,4.535768l20.353298,0l0,-4.535768l-13.578475,0l13.578475,-13.616913l0,-4.535768zm21.842798,22.688449l0,-4.535768l-14.712417,0l0,-4.506939l13.578475,0l0,-4.535768l-13.578475,0l0,-4.574207l14.712417,0l0,-4.535768l-19.248185,0l0,22.688449l19.248185,0zm7.45711,-11.310591l0,-6.842091l11.310591,0l0,6.842091l-11.310591,0zm15.81753,11.310591l0,-4.535768l-2.239055,-2.239055l2.239055,-2.267884l0,-11.349029l-2.239055,-2.296713l-18.114243,0l0,22.688449l4.535768,0l0,-6.774823l6.774823,0l2.267884,2.239055l2.267884,2.296713l0,2.239055l4.506939,0zm34.325769,0l2.239055,-2.239055l0,-9.109975l-2.239055,-2.267884l-13.578475,0l0,-4.535768l11.310591,0l0,2.267884l4.506939,0l0,-4.506939l-2.239055,-2.296713l-15.884797,0l-2.239055,2.296713l0,9.724994l2.239055,1.624036l13.616913,0l0,4.506939l-11.310591,0l0,-2.239055l-4.545378,0l0,4.535768l2.239055,2.239055l15.884797,0zm16.461378,-4.535768l-2.267884,0l-4.506939,-4.506939l0,-13.645742l-4.535768,0l0,15.913626l6.774823,6.774823l6.803652,0l6.774823,-6.774823l0,-15.913626l-4.497329,0l0,13.645742l-4.545378,4.506939zm16.499817,4.535768l0,-22.688449l-4.535768,0l0,22.688449l4.535768,0zm14.750855,0l0,-18.152681l7.879936,0l0,-4.535768l-20.362907,0l0,4.535768l7.947204,0l0,18.152681l4.535768,0z"/>
  <path stroke="null" id="svg_2" fill=" rgb(0, 0, 0)" d="m71.58538,63.856599c1.067921,0 1.913359,-0.422719 2.547438,-1.457268c1.234784,-1.991229 2.069098,-6.707882 2.280457,-9.466679l2.758797,0l0,10.812705l1.635255,0l0,-12.169855l-5.795699,0c-0.233608,2.959032 -1.012301,7.909293 -2.135843,9.822652c-0.389346,0.645203 -0.901059,0.912183 -1.446144,0.912183c-0.066745,0 -0.200235,0 -0.367098,-0.044497l0,1.535137c0.166863,0.033373 0.422719,0.055621 0.522837,0.055621zm17.220233,-0.111242l1.401647,0c-0.111242,-0.444967 -0.166863,-1.234784 -0.166863,-2.736549l0,-3.170392c0,-2.10247 -1.257033,-3.048026 -3.226013,-3.048026c-1.034549,0 -2.146967,0.255856 -3.159268,0.867686l0.567333,1.123542c0.634078,-0.367098 1.390523,-0.678575 2.380575,-0.678575c1.056797,0 1.813242,0.533961 1.813242,1.768745l0,0.467216l-1.624131,0.055621c-0.889935,0.033373 -1.590758,0.144614 -2.191464,0.444967c-0.889935,0.422719 -1.479516,1.190287 -1.479516,2.358327c0,1.679751 1.201412,2.736549 2.803294,2.736549c1.09017,0 1.935608,-0.500588 2.603058,-1.134667l0.278105,0.945555zm-0.389346,-4.249437l0,2.113595c-0.389346,0.378222 -1.101294,0.990052 -2.124719,0.990052c-0.923307,0 -1.512889,-0.589582 -1.512889,-1.49064c0,-0.533961 0.222484,-0.978928 0.689699,-1.234784c0.367098,-0.189111 0.823189,-0.300353 1.524013,-0.322601l1.423895,-0.055621zm6.296287,4.438548c2.436196,0 3.504117,-1.368274 3.504117,-2.658679c0,-1.079046 -0.61183,-1.790993 -1.735372,-2.057974l0,-0.055621c0.967804,-0.289229 1.535137,-1.023425 1.535137,-1.96898c0,-1.390523 -1.234784,-2.402823 -3.19264,-2.402823c-0.95668,0 -1.935608,0.255856 -2.692052,0.645203l0.456091,1.179163c0.533961,-0.26698 1.346026,-0.533961 2.10247,-0.533961c1.056797,0 1.702,0.444967 1.702,1.257033c0,0.645203 -0.444967,1.334902 -2.035725,1.334902c-0.144614,0 -0.645203,0 -0.990052,-0.022248l0,1.234784c0.289229,-0.033373 0.723072,-0.033373 0.867686,-0.033373c1.512889,0 2.347202,0.389346 2.347202,1.368274c0,0.923307 -0.711948,1.412771 -1.957856,1.412771c-0.912183,0 -1.646379,-0.200235 -2.436196,-0.589582l0,1.312653c0.645203,0.311477 1.512889,0.578457 2.525189,0.578457zm12.381214,-4.193816l0,-0.411595c0,-2.781045 -1.301529,-4.538666 -3.593111,-4.538666c-2.235961,0 -3.693228,1.868863 -3.693228,4.527542c0,2.491817 1.323778,4.616535 4.227189,4.616535c1.001176,0 2.046849,-0.278105 2.858915,-0.800941l-0.500588,-1.123542c-0.600706,0.333725 -1.323778,0.589582 -2.169215,0.589582c-1.724248,0 -2.736549,-1.212536 -2.758797,-2.858915l5.628836,0zm-5.628836,-1.22366c0.022248,-1.323778 0.778693,-2.436196 2.035725,-2.436196c1.312653,0 1.902235,1.22366 1.913359,2.436196l-3.949084,0zm7.586692,9.600169l1.624131,0l0,-4.460797c0.433843,0.166863 0.945555,0.278105 1.479516,0.278105c2.58081,0 4.449673,-1.813242 4.449673,-4.605411c0,-2.836666 -1.646379,-4.538666 -4.538666,-4.538666c-1.034549,0 -2.069098,0.200235 -3.014653,0.533961l0,12.792809zm1.624131,-5.884692l0,-5.873568c0.444967,-0.122366 0.856562,-0.200235 1.334902,-0.200235c1.690876,0 2.914536,1.001176 2.914536,3.159268c0,1.957856 -0.978928,3.226013 -2.84779,3.226013c-0.533961,0 -0.934431,-0.088993 -1.401647,-0.311477zm7.887045,1.512889l1.624131,0l0,-3.949084l3.971333,0l0,3.949084l1.624131,0l0,-8.732483l-1.624131,0l0,3.359503l-3.971333,0l0,-3.359503l-1.624131,0l0,8.732483zm14.839658,0l1.401647,0c-0.111242,-0.444967 -0.166863,-1.234784 -0.166863,-2.736549l0,-3.170392c0,-2.10247 -1.257033,-3.048026 -3.226013,-3.048026c-1.034549,0 -2.146967,0.255856 -3.159268,0.867686l0.578457,1.123542c0.622954,-0.367098 1.379399,-0.678575 2.380575,-0.678575c1.045673,0 1.802117,0.533961 1.802117,1.768745l0,0.467216l-1.624131,0.055621c-0.87881,0.033373 -1.579634,0.144614 -2.191464,0.444967c-0.889935,0.422719 -1.479516,1.190287 -1.479516,2.358327c0,1.679751 1.201412,2.736549 2.803294,2.736549c1.09017,0 1.935608,-0.500588 2.603058,-1.134667l0.278105,0.945555zm-0.389346,-4.249437l0,2.113595c-0.389346,0.378222 -1.101294,0.990052 -2.124719,0.990052c-0.923307,0 -1.512889,-0.589582 -1.512889,-1.49064c0,-0.533961 0.222484,-0.978928 0.689699,-1.234784c0.367098,-0.189111 0.823189,-0.300353 1.524013,-0.322601l1.423895,-0.055621zm3.415124,4.249437l1.735372,0l1.034549,-2.402823c0.300353,-0.700823 0.645203,-0.923307 0.889935,-0.923307l1.735372,0l0,3.32613l1.624131,0l0,-8.732483l-3.248261,0c-2.213712,0 -3.125895,1.257033 -3.125895,2.658679c0,1.012301 0.522837,1.902235 1.512889,2.269333l0,0.033373c-0.378222,0.166863 -0.645203,0.522837 -0.923307,1.134667l-1.234784,2.636431zm2.269333,-5.962561c0,-0.867686 0.500588,-1.479516 1.646379,-1.479516l1.479516,0l0,2.858915l-1.590758,0c-1.001176,0 -1.535137,-0.545085 -1.535137,-1.379399zm11.27992,10.334365l1.624131,0l0,-4.460797c0.422719,0.166863 0.945555,0.278105 1.479516,0.278105c2.58081,0 4.449673,-1.813242 4.449673,-4.605411c0,-2.836666 -1.646379,-4.538666 -4.538666,-4.538666c-1.034549,0 -2.069098,0.200235 -3.014653,0.533961l0,12.792809zm1.624131,-5.884692l0,-5.873568c0.444967,-0.122366 0.856562,-0.200235 1.334902,-0.200235c1.690876,0 2.914536,1.001176 2.914536,3.159268c0,1.957856 -0.978928,3.226013 -2.84779,3.226013c-0.533961,0 -0.934431,-0.088993 -1.401647,-0.311477zm14.739541,-2.491817l0,-0.411595c0,-2.781045 -1.312653,-4.538666 -3.604235,-4.538666c-2.235961,0 -3.693228,1.868863 -3.693228,4.527542c0,2.491817 1.334902,4.616535 4.227189,4.616535c1.001176,0 2.046849,-0.278105 2.858915,-0.800941l-0.500588,-1.123542c-0.600706,0.333725 -1.323778,0.589582 -2.169215,0.589582c-1.724248,0 -2.736549,-1.212536 -2.758797,-2.858915l5.63996,0zm-5.63996,-1.22366c0.022248,-1.323778 0.778693,-2.436196 2.035725,-2.436196c1.312653,0 1.902235,1.22366 1.924483,2.436196l-3.960209,0zm9.92277,5.417476c2.436196,0 3.504117,-1.368274 3.504117,-2.658679c0,-1.079046 -0.61183,-1.790993 -1.735372,-2.057974l0,-0.055621c0.95668,-0.289229 1.535137,-1.023425 1.535137,-1.96898c0,-1.390523 -1.245908,-2.402823 -3.203764,-2.402823c-0.95668,0 -1.935608,0.255856 -2.692052,0.645203l0.467216,1.179163c0.533961,-0.26698 1.346026,-0.533961 2.10247,-0.533961c1.045673,0 1.702,0.444967 1.702,1.257033c0,0.645203 -0.444967,1.334902 -2.035725,1.334902c-0.144614,0 -0.645203,0 -1.001176,-0.022248l0,1.234784c0.300353,-0.033373 0.723072,-0.033373 0.867686,-0.033373c1.512889,0 2.347202,0.389346 2.347202,1.368274c0,0.923307 -0.700823,1.412771 -1.957856,1.412771c-0.901059,0 -1.635255,-0.200235 -2.436196,-0.589582l0,1.312653c0.645203,0.311477 1.512889,0.578457 2.536313,0.578457zm5.528718,-0.189111l1.624131,0l0,-3.80447l1.501765,0c0.255856,0 0.533961,0.244732 0.845438,0.901059l1.312653,2.903411l1.713124,0l-1.579634,-3.281634c-0.322601,-0.634078 -0.578457,-1.023425 -1.056797,-1.145791l0,-0.044497c0.867686,-0.489464 0.923307,-2.024601 1.401647,-2.725424c0.144614,-0.200235 0.355974,-0.333725 0.622954,-0.333725c0.155739,0 0.300353,0.033373 0.444967,0.088993l0,-1.423895c-0.200235,-0.066745 -0.489464,-0.088993 -0.711948,-0.088993c-0.700823,0 -1.190287,0.300353 -1.512889,0.834314c-0.667451,1.067921 -0.656327,3.048026 -1.846614,3.048026l-1.134667,0l0,-3.659856l-1.624131,0l0,8.732483zm13.827358,0l1.401647,0c-0.111242,-0.444967 -0.166863,-1.234784 -0.166863,-2.736549l0,-3.170392c0,-2.10247 -1.245908,-3.048026 -3.226013,-3.048026c-1.034549,0 -2.135843,0.255856 -3.159268,0.867686l0.578457,1.123542c0.622954,-0.367098 1.379399,-0.678575 2.380575,-0.678575c1.045673,0 1.802117,0.533961 1.802117,1.768745l0,0.467216l-1.624131,0.055621c-0.87881,0.033373 -1.579634,0.144614 -2.191464,0.444967c-0.889935,0.422719 -1.479516,1.190287 -1.479516,2.358327c0,1.679751 1.201412,2.736549 2.803294,2.736549c1.09017,0 1.946732,-0.500588 2.603058,-1.134667l0.278105,0.945555zm-0.389346,-4.249437l0,2.113595c-0.378222,0.378222 -1.101294,0.990052 -2.113595,0.990052c-0.923307,0 -1.524013,-0.589582 -1.524013,-1.49064c0,-0.533961 0.222484,-0.978928 0.689699,-1.234784c0.367098,-0.189111 0.834314,-0.300353 1.535137,-0.322601l1.412771,-0.055621zm8.109528,4.249437l1.546261,0l3.237137,-4.616535c0.533961,-0.778693 0.87881,-1.323778 1.179163,-1.824366l0.033373,0c-0.033373,0.567333 -0.055621,1.123542 -0.055621,1.802117l0,4.638784l1.613006,0l0,-8.732483l-1.557385,0l-3.214888,4.616535c-0.511712,0.756444 -0.87881,1.323778 -1.190287,1.824366l-0.044497,0c0.022248,-0.567333 0.055621,-1.123542 0.055621,-1.802117l0,-4.638784l-1.601882,0l0,8.732483zm14.105462,0l1.624131,0l0,-7.286339l3.759973,0l0.500588,-1.446144l-5.884692,0l0,8.732483zm7.34196,4.371803l1.624131,0l0,-4.460797c0.422719,0.166863 0.945555,0.278105 1.479516,0.278105c2.58081,0 4.449673,-1.813242 4.449673,-4.605411c0,-2.836666 -1.646379,-4.538666 -4.538666,-4.538666c-1.034549,0 -2.069098,0.200235 -3.014653,0.533961l0,12.792809zm1.624131,-5.884692l0,-5.873568c0.444967,-0.122366 0.845438,-0.200235 1.334902,-0.200235c1.690876,0 2.914536,1.001176 2.914536,3.159268c0,1.957856 -0.978928,3.226013 -2.84779,3.226013c-0.533961,0 -0.934431,-0.088993 -1.401647,-0.311477zm13.070913,1.512889l1.401647,0c-0.111242,-0.444967 -0.166863,-1.234784 -0.166863,-2.736549l0,-3.170392c0,-2.10247 -1.257033,-3.048026 -3.226013,-3.048026c-1.034549,0 -2.146967,0.255856 -3.159268,0.867686l0.567333,1.123542c0.634078,-0.367098 1.390523,-0.678575 2.391699,-0.678575c1.045673,0 1.802117,0.533961 1.802117,1.768745l0,0.467216l-1.624131,0.055621c-0.889935,0.033373 -1.590758,0.144614 -2.191464,0.444967c-0.889935,0.422719 -1.479516,1.190287 -1.479516,2.358327c0,1.679751 1.201412,2.736549 2.803294,2.736549c1.09017,0 1.935608,-0.500588 2.603058,-1.134667l0.278105,0.945555zm-0.389346,-4.249437l0,2.113595c-0.389346,0.378222 -1.101294,0.990052 -2.124719,0.990052c-0.923307,0 -1.512889,-0.589582 -1.512889,-1.49064c0,-0.533961 0.222484,-0.978928 0.689699,-1.234784c0.367098,-0.189111 0.823189,-0.300353 1.524013,-0.322601l1.423895,-0.055621zm3.993581,4.249437l3.359503,0c2.547438,0 3.370627,-1.257033 3.370627,-2.469568c0,-1.112418 -0.767569,-1.779869 -1.679751,-2.002353l0,-0.033373c0.834314,-0.255856 1.457268,-0.845438 1.457268,-1.879987c0,-1.145791 -0.812065,-2.347202 -3.337254,-2.347202l-3.170392,0l0,8.732483zm1.56851,-1.22366l0,-2.636431l1.957856,0c1.012301,0 1.579634,0.47834 1.579634,1.334902c0,0.845438 -0.500588,1.301529 -1.713124,1.301529l-1.824366,0zm0,-3.782222l0,-2.502941l1.601882,0c1.279281,0 1.713124,0.489464 1.713124,1.245908c0,0.856562 -0.533961,1.257033 -1.56851,1.257033l-1.746497,0zm7.119476,5.005882l1.557385,0l3.226013,-4.616535c0.533961,-0.778693 0.889935,-1.323778 1.179163,-1.824366l0.044497,0c-0.044497,0.567333 -0.055621,1.123542 -0.055621,1.802117l0,4.638784l1.601882,0l0,-8.732483l-1.546261,0l-3.214888,4.616535c-0.522837,0.756444 -0.889935,1.323778 -1.201412,1.824366l-0.033373,0c0.011124,-0.567333 0.055621,-1.123542 0.055621,-1.802117l0,-4.638784l-1.613006,0l0,8.732483zm9.967267,4.371803l1.624131,0l0,-4.460797c0.422719,0.166863 0.945555,0.278105 1.479516,0.278105c2.58081,0 4.449673,-1.813242 4.449673,-4.605411c0,-2.836666 -1.646379,-4.538666 -4.538666,-4.538666c-1.034549,0 -2.069098,0.200235 -3.014653,0.533961l0,12.792809zm1.624131,-5.884692l0,-5.873568c0.444967,-0.122366 0.856562,-0.200235 1.334902,-0.200235c1.690876,0 2.914536,1.001176 2.914536,3.159268c0,1.957856 -0.978928,3.226013 -2.84779,3.226013c-0.533961,0 -0.934431,-0.088993 -1.401647,-0.311477zm11.558025,1.702c2.514065,0 4.14932,-2.002353 4.14932,-4.560914c0,-2.591934 -1.657503,-4.583163 -4.127071,-4.583163c-2.514065,0 -4.160444,1.991229 -4.160444,4.583163c0,2.558562 1.646379,4.560914 4.138196,4.560914zm0,-1.35715c-1.535137,0 -2.458444,-1.346026 -2.458444,-3.203764c0,-1.891111 0.923307,-3.237137 2.480693,-3.237137c1.535137,0 2.44732,1.346026 2.44732,3.237137c0,1.857738 -0.912183,3.203764 -2.469568,3.203764zm6.107176,1.168039l3.359503,0c2.547438,0 3.381751,-1.257033 3.381751,-2.469568c0,-1.112418 -0.778693,-1.779869 -1.679751,-2.002353l0,-0.033373c0.834314,-0.255856 1.457268,-0.845438 1.457268,-1.879987c0,-1.145791 -0.812065,-2.347202 -3.337254,-2.347202l-3.181516,0l0,8.732483zm1.56851,-1.22366l0,-2.636431l1.957856,0c1.023425,0 1.590758,0.47834 1.590758,1.334902c0,0.845438 -0.500588,1.301529 -1.713124,1.301529l-1.83549,0zm0,-3.782222l0,-2.502941l1.613006,0c1.268157,0 1.713124,0.489464 1.713124,1.245908c0,0.856562 -0.533961,1.257033 -1.56851,1.257033l-1.757621,0zm7.1306,5.005882l1.624131,0l0,-3.80447l1.49064,0c0.26698,0 0.545085,0.244732 0.856562,0.901059l1.312653,2.903411l1.713124,0l-1.590758,-3.281634c-0.311477,-0.634078 -0.567333,-1.023425 -1.045673,-1.145791l0,-0.044497c0.867686,-0.489464 0.923307,-2.024601 1.401647,-2.725424c0.144614,-0.200235 0.34485,-0.333725 0.622954,-0.333725c0.144614,0 0.300353,0.033373 0.444967,0.088993l0,-1.423895c-0.200235,-0.066745 -0.500588,-0.088993 -0.723072,-0.088993c-0.700823,0 -1.179163,0.300353 -1.512889,0.834314c-0.667451,1.067921 -0.645203,3.048026 -1.846614,3.048026l-1.123542,0l0,-3.659856l-1.624131,0l0,8.732483zm13.827358,0l1.401647,0c-0.111242,-0.444967 -0.166863,-1.234784 -0.166863,-2.736549l0,-3.170392c0,-2.10247 -1.257033,-3.048026 -3.226013,-3.048026c-1.034549,0 -2.146967,0.255856 -3.159268,0.867686l0.567333,1.123542c0.634078,-0.367098 1.390523,-0.678575 2.380575,-0.678575c1.056797,0 1.813242,0.533961 1.813242,1.768745l0,0.467216l-1.624131,0.055621c-0.889935,0.033373 -1.590758,0.144614 -2.191464,0.444967c-0.889935,0.422719 -1.479516,1.190287 -1.479516,2.358327c0,1.679751 1.201412,2.736549 2.803294,2.736549c1.09017,0 1.935608,-0.500588 2.603058,-1.134667l0.278105,0.945555zm-0.389346,-4.249437l0,2.113595c-0.389346,0.378222 -1.112418,0.990052 -2.124719,0.990052c-0.923307,0 -1.512889,-0.589582 -1.512889,-1.49064c0,-0.533961 0.222484,-0.978928 0.689699,-1.234784c0.367098,-0.189111 0.823189,-0.300353 1.524013,-0.322601l1.423895,-0.055621z"/>
  <rect fill="#db2723" transform="matrix(0.8999999761581421,0,0,0.8999999761581421,-6.359399795532227,-2.7945001125335693) " id="svg_4" height="5.999" width="3" y="49.896" x="33.067"/>
  <rect fill="#db2723" transform="matrix(0.8999999761581421,0,0,0.8999999761581421,-6.359399795532227,-2.7945001125335693) " id="svg_5" height="3" width="85.868" y="93.895" x="7.066"/>
  <path id="svg_6" fill="#db2723" d="m33.115499,78.989398c-3.7791,-7.2459 -11.2023,-11.7459 -19.374299,-11.7459c-0.6858,0 -1.3761,0.0315 -2.052,0.0963l0.2547,2.6874c0.5913,-0.0567 1.1961,-0.0846 1.7973,-0.0846c7.1613,0 13.6683,3.9447 16.9794,10.2942l2.3949,-1.2474z"/>
  <path id="svg_7" fill="#db2723" d="m7.8642,70.868698l-0.828,-2.5695c-1.2375,0.3987 -2.4489,0.9126 -3.5991,1.5273l1.2726,2.3814c1.0089,-0.54 2.0709,-0.99 3.1545,-1.3392z"/>
  <path id="svg_8" fill="#db2723" d="m9.2934,75.636898c-0.3978,0.2232 -0.7866,0.4626 -1.1637,0.7209l1.5201,2.2311c0.3123,-0.2124 0.6336,-0.4113 0.9621,-0.5958c5.2254,-2.9232 11.6685,-1.8531 15.6681,2.6001l2.0088,-1.8036c-4.8483,-5.3991 -12.6612,-6.696 -18.995399,-3.1527z"/>
  <path id="svg_9" fill="#db2723" d="m59.507998,67.602598c-6.6555,1.2213 -12.2715,5.3577 -15.4107,11.3499l2.3922,1.2537c2.7513,-5.2524 7.6725,-8.8767 13.5054,-9.9477l-0.4869,-2.6559z"/>
  <path id="svg_10" fill="#db2723" d="m48.960899,79.044298l2.0475,1.7595c2.0511,-2.3868 4.8987,-3.9231 8.0208,-4.3263l-0.3465,-2.6775c-3.7827,0.4887 -7.2351,2.3508 -9.7218,5.2443z"/>
  <path id="svg_11" fill="#db2723" d="m60.688798,76.373998c1.8828,0.0054 3.7719,0.4392 5.4684,1.2519l1.1673,-2.4345c-2.0547,-0.9846 -4.347,-1.5102 -6.6267,-1.5174l-0.009,2.7z"/>
  <path id="svg_12" fill="#db2723" d="m11.7,20.511899l6.2973,0l0,27.527399c0,3.6495 2.7648,6.7041 6.4314,7.4142l0,4.797c0,3.4065 2.9151,6.1767 6.4998,6.1767l1.5399,0l0,7.4817l4.8672,5.6799l2.6118,0l4.8672,-5.6799l0,-7.4817l1.5381,0c3.5838,0 6.5007,-2.7702 6.5007,-6.1767l0,-4.797c3.6648,-0.7101 6.4305,-3.7656 6.4305,-7.4142l0,-27.527399l6.4314,0l0,-6.3l3.5856,0l0,-14.2119l-2.7,0l0,11.5119l-55.799999,0l0,-11.5119l-2.7,0l0,14.2119l3.6,0l0,6.3l-0.0009,0zm30.413699,52.398899l-3.4092,3.978l-0.1296,0l-3.4083,-3.978l0,-6.4827l6.9462,0l0,6.4827l0.0009,0zm4.2381,-9.1827l-15.4242,0c-2.0952,0 -3.7998,-1.5588 -3.7998,-3.4767l0,-4.6404l2.5704,0l0,5.4018l2.7,0l0,-5.4018l17.7534,0l0,4.6404c0.0009,1.9179 -1.7046,3.4767 -3.7998,3.4767zm4.8663,-10.8171l-25.155899,0c-2.9583,0 -5.3649,-2.1852 -5.3649,-4.8708l0,-27.528299l0.4833,0l0,-0.0009l2.2203,0l0,19.800899l2.7,0l0,-19.800899l30.482099,0l0,27.528299c0,2.6865 -2.4066,4.8717 -5.3649,4.8717zm11.7963,-35.099099l-48.614399,0l0,-3.6l48.614399,0l0,3.6z"/>
 </g>
</svg>