<?xml version="1.0" standalone="no"?>
<!DOCTYPE svg PUBLIC "-//W3C//DTD SVG 20010904//EN"
 "http://www.w3.org/TR/2001/REC-SVG-20010904/DTD/svg10.dtd">
<svg version="1.0" xmlns="http://www.w3.org/2000/svg"
 width="700.000000pt" height="700.000000pt" viewBox="0 0 700.000000 700.000000"
 preserveAspectRatio="xMidYMid meet">
<metadata>
Created by potrace 1.11, written by Peter Selinger 2001-2013
</metadata>
<g transform="translate(0.000000,700.000000) scale(0.100000,-0.100000)"
fill="#000000" stroke="none">
<path d="M1120 3970 l0 -1190 1010 0 1010 0 -2 243 -3 242 -817 3 -818 2 0 23
c0 12 23 427 50 922 27 495 50 910 50 923 l0 22 -240 0 -240 0 0 -1190z"/>
<path d="M3846 5016 l-116 -123 0 -496 0 -495 117 -86 117 -86 698 0 698 0 0
-225 0 -225 -575 0 -574 0 -3 113 -3 112 -235 0 -235 0 -3 -235 -2 -234 117
-118 118 -118 820 0 820 0 113 113 112 112 0 475 0 475 -118 118 -117 117
-693 0 -692 0 0 225 0 225 575 0 575 0 0 -115 0 -115 235 0 235 0 0 238 -1
237 -115 118 -114 117 -819 0 -819 0 -116 -124z"/>
<path d="M1110 1885 l0 -275 235 0 235 0 0 55 0 55 -190 0 -190 0 6 83 c11
165 19 349 15 353 -2 2 -28 4 -58 4 l-53 0 0 -275z"/>
<path d="M1702 2077 l-82 -82 0 -193 0 -192 55 0 55 0 0 80 0 80 130 0 130 0
0 -80 0 -80 60 0 60 0 0 275 0 275 -163 0 -162 0 -83 -83z m288 -113 c0 -74
-1 -76 -22 -71 -13 3 -63 13 -113 22 -49 9 -96 19 -104 21 -10 3 0 20 34 54
l49 50 78 0 78 0 0 -76z"/>
<path d="M2164 2146 c-3 -7 -4 -33 -2 -57 l3 -44 158 -5 157 -5 -160 -160
-160 -160 0 -52 0 -53 250 0 250 0 0 55 0 55 -162 0 -163 0 163 163 162 162 0
58 0 57 -245 0 c-200 0 -247 -3 -251 -14z"/>
<path d="M2710 1885 l0 -275 235 0 235 0 0 55 0 55 -175 0 -175 0 0 50 0 50
163 2 162 3 3 58 3 57 -166 0 -165 0 0 50 0 50 175 0 175 0 0 60 0 60 -235 0
-235 0 0 -275z"/>
<path d="M3240 1885 l0 -275 60 0 60 0 0 80 0 80 78 0 78 0 52 -53 c37 -37 52
-60 52 -80 0 -26 1 -27 60 -27 l60 0 0 58 c0 50 -4 62 -25 82 l-25 24 25 26
c24 25 25 30 25 165 0 137 0 139 -27 167 l-27 28 -223 0 -223 0 0 -275z m380
80 l0 -75 -130 0 -130 0 0 75 0 75 130 0 130 0 0 -75z"/>
<path d="M4147 2132 c-26 -27 -27 -31 -27 -149 l0 -122 29 -20 c27 -19 43 -21
190 -21 l161 0 0 -50 0 -50 -130 0 -130 0 0 30 0 30 -60 0 -60 0 0 -58 c0 -51
4 -62 28 -85 l28 -27 196 0 196 0 26 31 c24 29 26 37 26 134 0 97 -2 105 -26
134 l-26 31 -164 0 -164 0 0 50 0 50 130 0 130 0 0 -25 c0 -24 3 -25 60 -25
l60 0 0 53 c0 47 -4 57 -33 85 l-33 32 -190 0 -190 0 -27 -28z"/>
<path d="M4680 1962 l0 -197 78 -78 77 -77 90 0 90 0 78 78 77 77 0 198 0 197
-55 0 -55 0 0 -163 0 -163 -58 -57 c-32 -31 -67 -57 -78 -57 -11 0 -45 26 -77
58 l-57 58 0 162 0 162 -55 0 -55 0 0 -198z"/>
<path d="M5230 1885 l0 -275 60 0 60 0 0 275 0 275 -60 0 -60 0 0 -275z"/>
<path d="M5400 2100 l0 -60 95 0 95 0 0 -215 0 -215 55 0 55 0 0 215 0 215 95
0 95 0 0 60 0 60 -245 0 -245 0 0 -60z"/>
</g>
</svg>
